<?xml version="1.0" encoding="UTF-8"?>
<svg width="1736px" height="1540px" viewBox="0 0 1736 1540" version="1.1" xmlns="http://www.w3.org/2000/svg" xmlns:xlink="http://www.w3.org/1999/xlink">
    <!-- Generator: Sketch 49.3 (51167) - http://www.bohemiancoding.com/sketch -->
    <title>plan-26</title>
    <desc>Created with Sketch.</desc>
    <defs></defs>
    <g id="Page-1" stroke="none" stroke-width="1" fill="none" fill-rule="evenodd">
        <g id="plan-26" fill-rule="nonzero">
            <rect id="Rectangle-path" fill="#C5D5DB" x="0.97" y="7.52" width="1734.82" height="581.94"></rect>
            <rect id="Rectangle-path" fill="#C5DDD9" x="1.4" y="589.22" width="867.89" height="950"></rect>
            <rect id="Rectangle-path" fill="#E1DAE2" x="867.89" y="589.22" width="867.89" height="950"></rect>
            <polygon id="Shape" fill="#808285" points="0 0 0 1073.91 12.72 1073.91 12.72 595.97 378.23 595.97 378.23 581.33 12.72 581.33 12.72 12.72 1721.92 12.72 1721.92 581.33 496.88 581.33 496.88 595.97 861.82 595.97 861.82 1091.91 874.54 1091.91 874.54 595.97 1721.92 595.97 1721.92 1526.49 874.54 1526.49 874.54 1210.56 861.82 1210.56 861.82 1526.49 12.72 1526.49 12.72 1226.56 0 1226.56 0 1539.21 1735.78 1539.21 1735.78 0"></polygon>
        </g>
    </g>
</svg>