<?xml version="1.0" encoding="UTF-8"?>
<svg width="1736px" height="1539px" viewBox="0 0 1736 1539" version="1.1" xmlns="http://www.w3.org/2000/svg" xmlns:xlink="http://www.w3.org/1999/xlink">
    <!-- Generator: Sketch 49.3 (51167) - http://www.bohemiancoding.com/sketch -->
    <title>plan-24</title>
    <desc>Created with Sketch.</desc>
    <defs></defs>
    <g id="Page-1" stroke="none" stroke-width="1" fill="none" fill-rule="evenodd">
        <g id="plan-24" fill-rule="nonzero">
            <rect id="Rectangle-path" fill="#E1DAE2" x="0.04" y="768.67" width="1727.7" height="760"></rect>
            <rect id="Rectangle-path" fill="#F0D7C5" x="0.04" y="8.67" width="1727.7" height="760"></rect>
            <polyline id="Shape" fill="#808285" points="0.04 1092.17 12.76 1092.17 12.76 776.23 547.66 776.23 547.66 763.51 12.76 763.51 12.76 12.98 1722.29 12.98 1722.29 763.51 665.31 763.51 665.31 776.23 1722.29 776.23 1722.29 1524.76 12.76 1524.76 12.76 1210.82 0.04 1210.82 0.04 1538.41 1735.01 1538.41 1735.01 0.26 0 0.26"></polyline>
            <polyline id="Shape" fill="#808285" points="0.04 1092.17 12.76 1092.17 12.76 776.23 547.66 776.23 547.66 763.51 12.76 763.51 12.76 12.98 1722.29 12.98 1722.29 763.51 665.31 763.51 665.31 776.23 1722.29 776.23 1722.29 1524.76 12.76 1524.76 12.76 1210.82 0.04 1210.82 0.04 1538.41 1735.01 1538.41 1735.01 0.26 0 0.26"></polyline>
        </g>
    </g>
</svg>