<?xml version="1.0" encoding="UTF-8"?>
<svg width="1736px" height="1540px" viewBox="0 0 1736 1540" version="1.1" xmlns="http://www.w3.org/2000/svg" xmlns:xlink="http://www.w3.org/1999/xlink">
    <!-- Generator: Sketch 49.3 (51167) - http://www.bohemiancoding.com/sketch -->
    <title>plan-23</title>
    <desc>Created with Sketch.</desc>
    <defs></defs>
    <g id="Page-1" stroke="none" stroke-width="1" fill="none" fill-rule="evenodd">
        <g id="plan-23" fill-rule="nonzero">
            <rect id="Rectangle-path" fill="#C5D5DB" x="7.74" y="8.67" width="860" height="760"></rect>
            <rect id="Rectangle-path" fill="#C5DDD9" x="0" y="768.67" width="867.74" height="760"></rect>
            <rect id="Rectangle-path" fill="#F0D7C5" x="866" y="9" width="860" height="760"></rect>
            <rect id="Rectangle-path" fill="#E1DAE2" x="867.74" y="768.67" width="860" height="760"></rect>
            <polygon id="Shape" fill="#808285" points="0 0 0 1073.91 12.72 1073.91 12.72 775.97 378.23 775.97 378.23 763.25 12.72 763.25 12.72 12.72 861.82 12.72 861.82 763.25 496.88 763.25 496.88 775.97 861.82 775.97 861.82 1091.91 874.54 1091.91 874.54 775.97 1240.44 775.97 1240.44 763.25 874.54 763.25 874.54 12.72 1723.06 12.72 1723.06 763.25 1358.09 763.25 1358.09 775.97 1723.06 775.97 1723.06 1526.49 874.54 1526.49 874.54 1210.56 861.82 1210.56 861.82 1526.49 12.72 1526.49 12.72 1226.56 0 1226.56 0 1539.21 1735.78 1539.21 1735.78 0"></polygon>
        </g>
    </g>
</svg>