<?xml version="1.0" encoding="UTF-8"?>
<svg width="142px" height="141px" viewBox="0 0 142 141" version="1.1" xmlns="http://www.w3.org/2000/svg" xmlns:xlink="http://www.w3.org/1999/xlink">
    <!-- Generator: Sketch 49.3 (51167) - http://www.bohemiancoding.com/sketch -->
    <title>logo_tomsk</title>
    <desc>Created with Sketch.</desc>
    <defs></defs>
    <g id="Page-1" stroke="none" stroke-width="1" fill="none" fill-rule="evenodd">
        <g id="Главная-страница-2-2" transform="translate(-741.000000, -536.000000)" fill="#ECF0F1" fill-rule="nonzero">
            <g id="logo_tomsk" transform="translate(741.000000, 536.000000)">
                <path d="M136.711227,103.774336 C136.711227,97.7433628 141.893412,95.8057414 141.893412,86.2393697 C141.893412,76.6729981 132.396969,71.3014246 127.793402,71.3014246 C123.184759,71.3014246 114.678057,71.3014246 114.678057,71.3014246 C114.678057,71.3014246 114.06391,71.7173538 113.287343,72.3412476 C109.64814,68.5978847 103.795975,65.7320311 98.0097938,65.7320311 C88.6402402,65.7320311 86.9957465,65.3769696 83.6712299,64.0835312 C79.7985488,62.5821282 78.1692819,59.3003453 78.8798656,55.5214764 L79.3112914,54.7200518 L99.0502913,47.5325923 L92.5078457,42.313188 C92.807306,40.7864235 92.5382993,38.8285128 91.3404582,36.2720699 L101.491654,27.1013382 L84.995961,19.9544572 L92.2946706,10.1851932 L75.1289988,10.1851932 C75.0071845,9.7844809 74.9259749,9.49028707 74.9259749,9.49028707 L70.5152804,0 L67.302427,0 L64.05912,9.57144399 L63.1201344,10.1851932 L61.7598742,10.1851932 L61.9425957,10.9460393 L42.0919327,23.8652061 L41.5589949,28.7244766 L48.3298424,34.6438593 L59.2220753,25.8687675 L67.1400079,32.8989855 L45.2895593,54.2483272 L23.9923509,37.3321822 L0.994817171,60.9843514 L0.583693748,63.7690481 L4.19244379,67.6037125 L23.7030418,47.6340384 L38.5999214,60.796676 L37.0569396,62.3031513 L40.0566179,68.5065832 L34.717089,72.1637168 L27.7939736,66.0921649 L23.0584409,65.9399957 L0,88.405245 L3.52754048,93.5232031 L23.7944025,76.0186704 L37.5594238,90.2363479 L66.3076098,90.2008418 L83.4123745,106.858299 L61.1508024,128.167062 L61.775101,135.841463 L71.1395789,135.648716 L71.1395789,128.88733 L93.0103299,104.875027 L103.88226,112.097993 L81.6156128,134.53788 L81.9302999,141 L91.3607606,140.863048 L91.3607606,134.061084 L111.739286,114.025469 L111.739286,98.7781135 C111.739286,98.7781135 116.957,93.6601554 116.957,79.8431902 C116.957,79.3714656 116.804732,78.8895964 116.713372,78.4178718 C122.606141,79.3816102 128.148694,84.4082668 128.148694,90.0638895 C128.148694,94.6594 128.148694,92.7319232 128.148694,104.433736 C128.148694,116.125405 142,115.242823 142,115.242823 C142,115.242823 136.711227,109.795165 136.711227,103.774336 Z" id="Shape"></path>
            </g>
        </g>
    </g>
</svg>