<?xml version="1.0" encoding="UTF-8"?>
<svg width="110px" height="128px" viewBox="0 0 110 128" version="1.1" xmlns="http://www.w3.org/2000/svg" xmlns:xlink="http://www.w3.org/1999/xlink">
    <!-- Generator: Sketch 49.3 (51167) - http://www.bohemiancoding.com/sketch -->
    <title>logo_krasnoyarsk</title>
    <desc>Created with Sketch.</desc>
    <defs></defs>
    <g id="Page-1" stroke="none" stroke-width="1" fill="none" fill-rule="evenodd">
        <g id="Главная-страница-2-2" transform="translate(-501.000000, -369.000000)" fill="#ECF0F1" fill-rule="nonzero">
            <g id="logo_krasnoyarsk" transform="translate(501.458765, 369.686007)">
                <polygon id="Shape" points="104.154639 27.1707753 95.0977136 27.1707753 90.5692511 31.6992379 90.5692511 49.8130881 95.0977136 63.3984757 95.0977136 67.9269383 86.0407885 76.9838634 86.0407885 72.4554008 76.9838634 63.3984757 76.9838634 54.3415506 86.0407885 54.3415506 81.512326 49.8130881 86.0407885 27.1707753 81.512326 18.1138502 72.4554008 13.5853877 67.9269383 9.05692511 63.3984757 9.05692511 63.3984757 13.5853877 58.8700132 13.5853877 54.3415506 18.1138502 49.8130881 18.1138502 45.2846255 22.6423128 45.2846255 27.1707753 54.3415506 27.1707753 54.3415506 31.6992379 45.2846255 31.6992379 49.8130881 40.756163 40.756163 40.756163 24.906544 24.906544 31.6992379 18.1138502 36.2277004 22.6423128 45.2846255 13.5853877 45.2846255 0 31.6992379 0 22.6423128 9.05692511 27.1707753 13.5853877 4.52846255 36.2277004 0 36.2277004 0 40.756163 4.52846255 45.2846255 9.05692511 45.2846255 9.05692511 40.756163 15.8496189 33.9634691 18.1138502 36.2277004 27.1707753 40.756163 36.2277004 49.8130881 45.2846255 49.8130881 45.2846255 54.3415506 36.2277004 58.8700132 22.6423128 69.7383233 22.6423128 58.8700132 18.1138502 54.3415506 9.05692511 54.3415506 4.52846255 63.3984757 4.52846255 67.9269383 9.05692511 72.4554008 9.05692511 63.3984757 13.5853877 58.8700132 18.1138502 63.3984757 18.1138502 72.4554008 18.6165096 72.9580602 13.5853877 76.9838634 18.1138502 81.512326 36.2277004 72.4554008 36.2277004 67.9269383 54.3415506 67.9269383 54.3415506 72.4554008 49.8130881 76.9838634 40.756163 81.512326 40.756163 86.0407885 45.2846255 95.0977136 49.8130881 108.683101 40.756163 113.211564 27.1707753 117.740026 27.1707753 122.268489 31.6992379 126.796951 45.2846255 126.796951 58.8700132 108.683101 63.3984757 104.154639 58.8700132 90.5692511 67.9269383 90.5692511 76.9838634 104.154639 86.0407885 104.154639 90.5692511 113.211564 76.9838634 117.740026 76.9838634 122.268489 81.512326 126.796951 89.844697 126.928277 99.6261762 122.268489 99.6261762 95.0977136 90.5692511 95.0977136 86.0407885 90.5692511 86.0407885 81.512326 90.5692511 81.512326 95.0977136 76.9838634 99.6261762 67.9269383 99.6261762 58.8700132 95.0977136 45.2846255 95.0977136 36.2277004 99.6261762 31.6992379 104.154639 36.2277004 99.6261762 40.756163 108.683101 40.756163 108.751028 31.5226278"></polygon>
            </g>
        </g>
    </g>
</svg>