<?xml version="1.0" encoding="UTF-8"?>
<svg width="121px" height="148px" viewBox="0 0 121 148" version="1.1" xmlns="http://www.w3.org/2000/svg" xmlns:xlink="http://www.w3.org/1999/xlink">
    <!-- Generator: Sketch 49.3 (51167) - http://www.bohemiancoding.com/sketch -->
    <title>logo_biysk</title>
    <desc>Created with Sketch.</desc>
    <defs></defs>
    <g id="Page-1" stroke="none" stroke-width="1" fill="none" fill-rule="evenodd">
        <g id="Главная-страница-2-2" transform="translate(-741.000000, -169.000000)" fill="#99D9F1" fill-rule="nonzero">
            <g id="logo_biysk" transform="translate(741.000000, 169.000000)">
                <path d="M120.813006,4.43348225 C120.813006,1.4925798 120.288237,0.115403462 115.66474,0.115403462 C111.046768,0.115403462 108.389777,-0.00530522111 106.539273,0.000181537188 C105.732785,0.00566829549 99.5460282,1.25664919 99.5460282,5.82711885 C99.5460282,9.51970719 99.6509822,13.1574279 98.0490539,14.7431011 C96.4581735,16.3287742 92.0224896,16.7567414 90.0504607,16.7786884 C87.5205189,16.8390428 86.5814576,17.1353277 85.2170566,18.490557 C83.8526557,19.8457863 83.1897889,21.2503964 83.1455977,23.121381 C83.1290261,25.0636935 83.0737872,29.8042526 81.4773829,31.3899258 C79.8920263,32.9591387 73.3738357,32.8439167 71.3962829,32.8658638 C68.871865,32.9262181 63.9500787,43.8832744 63.9500787,43.8832744 L57.6638915,43.8832744 C57.6638915,43.8832744 52.1676206,32.7780756 49.6432027,32.7177213 C47.6656499,32.6957743 42.4897647,33.1511752 40.9044081,31.5819623 C39.3080038,29.9962892 38.9655226,25.4971474 38.9544748,23.5548349 C38.9102837,21.6838504 37.9546507,19.9500347 36.3195791,18.4521497 C33.9443063,16.2684199 33.0218166,16.4275359 30.4918748,16.3671816 C28.5143221,16.3452345 24.9293172,16.0928436 23.3384368,14.5071705 C21.7420325,12.9214973 21.8580342,12.4606096 21.8580342,8.76802131 C21.8580342,6.22765221 21.918797,5.23454896 19.2065668,2.54055063 C16.8920567,0.236112144 12.8817123,0.433635443 12.8817123,0.433635443 C5.49074702,-0.0107919794 5.48522313,0.115403462 2.93318578,0.115403462 C2.93318578,0.115403462 0,1.64072227 0,4.58162472 C0,7.52252717 0.0939061362,10.9188306 1.87259883,12.021669 C3.65129153,13.1245074 10.9925418,11.0559995 10.9925418,15.9172674 C10.9925418,20.9486247 11.5780742,22.2434997 13.1689546,23.8291728 C14.7543112,25.3983857 17.3671113,25.9415748 19.3336163,25.9690086 C21.8690819,26.0238762 24.7967438,25.5190944 26.6085799,27.3187511 C28.4314637,29.1238946 28.2988903,32.83843 28.3430815,34.698441 C28.365177,36.6572138 29.3373817,39.4499737 30.933786,41.0411336 C32.5191426,42.6103465 38.7003759,43.6144233 38.7003759,43.6144233 C38.7003759,43.6144233 37.7502667,50.4728712 41.8048023,54.0721846 C44.1800751,56.1790998 50.7921719,59.0212406 50.7921719,64.4476446 C50.7921719,72.5351263 47.2347865,72.8807921 43.9756912,75.8491283 C41.4567972,78.1151595 38.744567,81.3523469 38.744567,84.9790941 C38.744567,88.6003546 41.4402255,92.1722343 43.9646434,94.4547257 C47.1795476,97.4066017 50.3889279,99.0087351 50.3889279,105.993378 C50.3889279,112.967048 46.555348,115.090424 43.9756912,117.049196 C39.7830584,120.231516 38.6506609,125.081811 38.6506609,128.714045 C38.6506609,132.324332 49.7481566,148 49.7481566,148 L76.88703,147.928672 L76.88703,144.433607 C74.3460404,139.204726 70.5456038,135.171959 70.8052267,129.087144 C70.9598956,125.45491 73.9151769,119.309741 76.434071,117.04371 C78.8314394,114.85998 82.6539715,111.331994 82.6539715,106.119574 C82.6539715,100.89618 77.9034258,97.7961615 74.6940455,94.8442856 C72.1585798,92.5617941 70.4185543,91.2065648 70.4185543,87.5853043 C70.4185543,81.9119962 73.6058391,80.2165879 76.1357809,77.9395832 C79.3948762,74.9767337 82.7202582,74.2744287 82.7202582,68.0963388 C82.7202582,62.8125906 76.3401648,61.100722 76.3401648,53.3424458 C76.3401648,47.2850646 80.0687908,46.1438189 83.3886489,45.21107 C85.2833433,44.6788544 88.0508124,43.5321219 89.6361689,41.962909 C91.2325732,40.3717491 91.7683906,37.7765125 91.7904862,35.8177397 C91.8402012,33.9577287 90.4205614,30.9070911 93.4918444,27.867427 C96.5576035,24.8167893 99.1814515,26.0348497 101.716917,25.9799821 C103.688946,25.9525483 106.296222,25.4093592 107.881579,23.8401464 C109.472459,22.2544732 110.008277,19.6592365 110.030372,17.7004638 C110.085611,15.1600947 111.267724,13.2507028 120.02309,13.2507028 C120.912436,13.2452161 120.813006,7.3743847 120.813006,4.43348225 Z" id="Shape"></path>
            </g>
        </g>
    </g>
</svg>