<?xml version="1.0" encoding="UTF-8"?>
<svg width="110px" height="98px" viewBox="0 0 110 98" version="1.1" xmlns="http://www.w3.org/2000/svg" xmlns:xlink="http://www.w3.org/1999/xlink">
    <!-- Generator: Sketch 49.3 (51167) - http://www.bohemiancoding.com/sketch -->
    <title>logo_novokuznetsk</title>
    <desc>Created with Sketch.</desc>
    <defs></defs>
    <g id="Page-1" stroke="none" stroke-width="1" fill="none" fill-rule="evenodd">
        <g id="Главная-страница-2-2" transform="translate(-742.000000, -399.000000)" fill="#99D9F1" fill-rule="nonzero">
            <g id="logo_novokuznetsk" transform="translate(742.123540, 399.597862)">
                <path d="M101.04986,31.1469624 C109.899145,22.1921882 112.051886,9.85397851 105.851525,3.57938547 C99.6589784,-2.6913006 87.4731405,-0.507304645 78.6121336,8.44356251 C72.4313078,14.7025277 70.3059164,21.8757237 71.6538209,27.7830616 C68.0359671,27.732271 58.9210073,27.2087371 45.8717291,36.8823936 L35.0025399,25.8764605 L51.5759046,9.83835063 L42.5586189,0.0201362395 L17.3703865,11.4870918 L0,29.6154303 L15.6864826,44.5713096 L27.297996,33.3309583 L37.7178837,43.875869 C30.7283152,50.6583681 22.9104692,60.2773271 14.4245315,73.9360925 C12.8851855,76.3896694 13.8228581,79.5230589 16.2412723,81.0702188 C17.1008056,81.6171946 18.0580131,81.8789615 19.0074067,81.8789615 C20.7381942,81.8789615 22.4181911,81.0116143 23.4066544,79.4253847 C31.5644067,66.4151762 38.8704397,57.5268205 45.2036373,51.4553899 L58.5342173,64.9500626 C52.5135773,72.2834444 44.0198255,80.2341274 31.912127,87.8097412 C30.497804,88.6966233 29.5913871,89.630389 29.1655274,90.6188523 C28.6380865,91.8221989 28.833435,93.1036849 29.6929683,94.4437755 L30.2790137,95.1235882 C31.271384,96.686376 32.2168706,97.2333517 33.9320302,97.2333517 C34.8853308,97.2333517 35.8620732,96.9637708 36.7411413,96.4011672 C49.9427913,87.8292761 59.4132854,79.8785931 66.2114124,72.724932 L89.067184,95.8620054 L97.1546109,88.7825767 L73.1658181,64.5046681 C82.0541738,52.5376205 83.2926831,43.5164279 83.4528688,38.5194138 C88.9734168,39.1953196 95.3964747,36.8706727 101.04986,31.1469624 Z M85.0430054,12.7724847 C90.0400195,7.70905225 98.1547951,4.82180177 101.393673,8.09584223 C104.640365,11.3776966 101.788277,19.5862396 96.7795419,24.653579 C91.7708069,29.7209185 85.093796,31.1547763 81.8510113,27.8729219 C78.6121336,24.5949745 80.0342705,17.8398242 85.0430054,12.7724847 Z M53.5137615,44.6142863 C64.1758813,37.3121603 70.751311,38.6835066 72.2203315,38.7694599 C71.5874024,41.9770819 69.6612665,48.3220004 64.8713218,56.1124976 L53.5137615,44.6142863 Z" id="Shape"></path>
            </g>
        </g>
    </g>
</svg>