<?xml version="1.0" encoding="UTF-8"?>
<svg width="111px" height="110px" viewBox="0 0 111 110" version="1.1" xmlns="http://www.w3.org/2000/svg" xmlns:xlink="http://www.w3.org/1999/xlink">
    <!-- Generator: Sketch 49.3 (51167) - http://www.bohemiancoding.com/sketch -->
    <title>logo_chita</title>
    <desc>Created with Sketch.</desc>
    <defs></defs>
    <g id="Page-1" stroke="none" stroke-width="1" fill="none" fill-rule="evenodd">
        <g id="Главная-страница-2-2" transform="translate(-981.000000, -567.000000)" fill="#99D9F1" fill-rule="nonzero">
            <g id="logo_chita" transform="translate(981.788315, 567.344997)">
                <path d="M75.2339499,42.8908857 C75.2143793,42.7108363 75.2182934,42.530787 75.2065511,42.3507376 C75.3004899,42.4055353 75.370944,42.4564188 75.4648828,42.5073023 C96.8359574,39.4542916 110.832837,36.2877716 109.275019,0.164392882 L108.453054,0 C102.542739,27.6493171 84.7609088,31.6847709 76.2281354,31.9744155 C76.0480861,29.3363012 74.4393843,27.5632065 68.6386641,27.5632065 C63.6285953,27.5632065 62.0512064,31.8726485 54.5909009,31.8726485 C47.1305954,31.8726485 43.9366765,27.5632065 40.7153589,27.5632065 C34.7424175,27.5632065 33.211998,29.4380682 33.1219734,32.2053484 C24.3621812,31.7317403 6.7995417,27.2892184 0.947937935,0.0821964409 L0.118145293,0.0704540922 C-1.46315766,36.064667 12.9838453,39.5717151 34.1631283,42.6168975 C34.1553,42.7069222 34.1592142,42.7969469 34.1513859,42.8869716 C17.1014956,41.3095827 4.53718252,44.080777 4.53718252,44.080777 C5.85232557,48.7972871 16.7061699,56.1675679 31.662008,54.0656875 C30.8752706,67.7142108 35.3921608,74.2507849 35.3921608,74.2507849 C35.3921608,74.2507849 39.5137252,75.464161 39.2827923,87.2025955 C30.3781779,95.3478714 38.8796383,106.052979 46.950546,105.32104 C47.2088777,107.160674 50.3714836,109.477831 54.9627419,109.477831 C59.5540003,109.477831 62.0238076,107.278098 62.2860534,105.438463 C72.3179333,105.215358 78.0795124,94.7411834 69.7620154,87.4609272 C69.7620154,75.6246397 74.6390042,74.1881591 74.6390042,74.1881591 C74.6390042,74.1881591 79.3359437,67.7142108 78.5531205,54.0617734 C93.5050445,56.1636538 103.51344,49.1456434 104.824669,44.4291334 C104.824669,44.4330475 92.2838402,41.3095827 75.2339499,42.8908857 Z" id="Shape"></path>
            </g>
        </g>
    </g>
</svg>