<?xml version="1.0" encoding="UTF-8"?>
<svg width="109px" height="109px" viewBox="0 0 109 109" version="1.1" xmlns="http://www.w3.org/2000/svg" xmlns:xlink="http://www.w3.org/1999/xlink">
    <!-- Generator: Sketch 49.3 (51167) - http://www.bohemiancoding.com/sketch -->
    <title>logo_omsk</title>
    <desc>Created with Sketch.</desc>
    <defs></defs>
    <g id="Page-1" stroke="none" stroke-width="1" fill="none" fill-rule="evenodd">
        <g id="Главная-страница-2-2" transform="translate(-502.000000, -568.000000)" fill="#ECF0F1" fill-rule="nonzero">
            <g id="logo_omsk" transform="translate(502.000000, 568.000000)">
                <path d="M100.333913,34.7439278 L88.9595051,34.7439278 L88.9595051,100.158411 L81.2162179,100.158411 L81.2162179,34.7439278 L27.5873593,34.7439278 L27.5873593,100.158411 L19.0487946,100.158411 L19.0487946,34.7439278 L8.02353304,34.7439278 L8.02353304,78.313496 L0.559562846,84.7261482 L0.559562846,108.623267 L38.4070126,108.623267 L38.4070126,76.5910414 C38.3876156,65.7131971 46.4606519,61.4613721 54.1147128,61.4613721 C61.7687738,61.4613721 70.0357803,66.0002729 70.0357803,76.5910414 L70.0357803,108.623267 L107.991853,108.623267 L107.991853,84.7261482 L100.330034,77.8324502 L100.330034,34.7439278 L100.333913,34.7439278 Z M69.3762818,50.3895576 L39.0820286,50.3895576 L39.0820286,42.227295 L69.3762818,42.227295 L69.3762818,50.3895576 Z M102.971907,26.6437356 L108.154788,15.3934687 L96.3381285,15.3934687 L96.3381285,7.70061374 L73.1354228,7.70061374 L73.1354228,0 L35.152194,0 L35.152194,7.70061374 L12.1512172,7.70061374 L12.1512172,15.3895893 L0.0785169492,15.3895893 L5.33898659,26.6398562 L102.971907,26.6398562 L102.971907,26.6437356 Z" id="Shape"></path>
            </g>
        </g>
    </g>
</svg>