<?xml version="1.0" encoding="UTF-8"?>
<svg width="94px" height="148px" viewBox="0 0 94 148" version="1.1" xmlns="http://www.w3.org/2000/svg" xmlns:xlink="http://www.w3.org/1999/xlink">
    <!-- Generator: Sketch 49.3 (51167) - http://www.bohemiancoding.com/sketch -->
    <title>logo_novosibirsk</title>
    <desc>Created with Sketch.</desc>
    <defs></defs>
    <g id="Page-1" stroke="none" stroke-width="1" fill="none" fill-rule="evenodd">
        <g id="Главная-страница-2-2" transform="translate(-982.000000, -349.000000)" fill="#ECF0F1" fill-rule="nonzero">
            <g id="logo_novosibirsk" transform="translate(982.000000, 349.000000)">
                <path d="M85.5084991,55.7633657 C83.7391923,60.0288668 79.2321713,62.3386858 74.8560162,62.3386858 C69.5271574,62.3386858 66.5015382,53.6438292 66.5015382,51.2282977 C70.2390678,51.2547258 81.1375786,47.1002229 85.1473092,40.1601946 C86.6810574,37.5385235 87.461018,34.9538519 88.2619172,32.1366126 L88.2619172,23.7166087 C88.2619172,23.7166087 88.2619172,20.4712337 88.2619172,20.4500912 C86.0162587,20.5505181 80.8810814,20.0589548 80.8810814,26.0581415 C80.8810814,33.2360231 79.8498583,32.9981699 78.3841604,35.6621259 C74.6728039,42.3854436 62.0678021,41.2648906 62.0678021,41.2648906 C57.6864124,35.0965638 47.5364545,23.2620448 45.4792428,22.479772 C44.5527123,22.1309206 45.1389915,17.4002843 45.1389915,17.4002843 L56.5086194,14.8473265 C56.5086194,14.8473265 56.7075355,10.7773936 56.7075355,9.53527125 C56.7075355,8.47286021 37.2137536,5.56047969 37.2137536,5.56047969 L36.0778378,0 L30.9740683,0.0581418979 L30.9845376,4.70949373 C30.9845376,4.70949373 25.5876286,5.97804423 25.6661481,16.0418782 C25.7027906,20.6033744 40.2289036,38.3577957 41.2862999,47.4860737 C41.4747468,49.2039025 41.6108473,56.3500703 41.6108473,59.5425891 C41.6108473,76.7420196 29.743929,84.7391734 29.1785884,85.3787342 C27.9693877,86.6948554 23.3733779,93.1380348 18.7773681,89.7076628 C14.170889,86.2772908 16.5003017,83.893473 24.2527966,75.1510458 C28.7493483,69.5799949 33.6227938,62.534254 28.7493483,50.0601741 C24.3574893,38.8123597 11.0772195,26.8509856 8.54889065,26.0475703 C6.03626569,25.2230124 3.04205429,26.4017073 1.69151838,27.8182553 C-4.97217237,34.7529981 10.2030354,50.3297411 10.2030354,60.0975799 C10.2030354,76.8530177 4.8218303,78.4017065 4.96840009,85.2783073 C5.02074644,87.408415 5.28247821,89.506809 7.30304744,92.2341926 C11.8519455,98.36552 19.5363902,96.5419786 24.2737351,96.5419786 L26.5036898,98.265093 L26.184377,117.541775 C23.8183219,119.212033 16.0396538,120.692009 15.7360449,124.465946 C15.6994025,128.118315 15.6732293,135.084771 15.6261176,138.721283 C16.2019275,142.019514 19.279893,147.114859 22.5724787,147.738563 C23.5565901,147.955273 33.3401235,148.198412 35.7375865,147.738563 L35.3397542,143.187638 C34.6121399,140.285828 31.8534871,140.227686 26.3937624,140.227686 C24.2999083,140.227686 21.4156243,136.8026 21.4156243,132.954664 C21.4156243,130.211423 23.5251823,127.711322 25.4829359,126.897335 C40.3388309,126.897335 45.3431423,121.643422 45.3431423,117.092497 L54.9329942,116.918071 L57.4142113,120.496441 C57.3985074,122.425694 57.7125855,136.781458 57.691647,138.504572 C58.1522949,141.998372 61.1883834,146.929862 64.4862036,147.553566 C65.4703151,147.770276 71.7466428,147.960559 77.8554622,147.960559 L77.4628646,143.409634 C76.7300156,140.507825 74.1650443,140.111403 68.715789,140.111403 C66.6114656,140.111403 64.036025,136.348036 64.036025,132.58467 C64.036025,125.565357 71.6890618,118.894896 71.6890618,111.066882 C71.6890618,101.748321 67.4908843,97.3242514 58.5448925,92.9953229 C56.414396,92.4509033 54.6817317,90.2045118 54.3048379,84.7391734 C54.2106145,83.185199 54.8283015,80.9705212 55.4931002,79.3478337 C57.906267,73.7186409 59.8430821,74.2154898 62.0992099,66.2606211 L67.1820408,66.2606211 C69.5899731,71.4511069 74.9764128,71.1339692 77.944451,71.1339692 C82.451472,71.1339692 86.5920686,65.552347 88.9267159,63.1262442 C90.2301401,61.9211212 92.5595528,61.4929855 93.6012452,60.6419995 L93.6326531,51.3551527 C93.6169492,51.3710096 87.6861073,50.4830242 85.5084991,55.7633657 Z" id="Shape"></path>
            </g>
        </g>
    </g>
</svg>