<?xml version="1.0" encoding="UTF-8"?>
<svg width="111px" height="99px" viewBox="0 0 111 99" version="1.1" xmlns="http://www.w3.org/2000/svg" xmlns:xlink="http://www.w3.org/1999/xlink">
    <!-- Generator: Sketch 49.3 (51167) - http://www.bohemiancoding.com/sketch -->
    <title>download</title>
    <desc>Created with Sketch.</desc>
    <defs></defs>
    <g id="Page-1" stroke="none" stroke-width="1" fill="none" fill-rule="evenodd">
        <g id="Главная-страница-2-2" transform="translate(-980.000000, -219.000000)" fill="#99D9F1" fill-rule="nonzero">
            <g id="download" transform="translate(980.788315, 219.347834)">
                <path d="M104.685053,39.316142 L90.157539,39.316142 C90.157539,60.7803575 75.884619,74.7712659 54.7729179,74.7712659 C33.6612169,74.7712659 19.2355406,60.6471854 19.2355406,39.3827281 L4.43776573,39.3827281 L0,42.7041979 L0,54.7601934 L4.43776573,58.042495 L10.0270788,58.042495 C11.4567209,62.1747482 13.4151347,66.0524076 15.0053667,68.5983455 L6.36092811,76.3340802 L21.5386353,90.6500852 L29.4467103,79.8553082 C33.8100563,82.5540025 38.0010619,84.6847567 43.1556071,85.8245536 L43.1556071,93.0040987 L48.2122316,97.7591274 L61.1455965,97.7591274 L65.9593777,93.0040987 L65.9593777,86.1026483 C71.9051221,84.7826774 75.2109246,83.1650276 80.0834582,79.8083063 L87.7800246,90.7205881 L102.605217,76.3340802 L91.7203532,66.5733456 C92.5742216,64.587514 97.9990279,61.4031331 99.1623258,58.0503287 L104.685053,58.0503287 L109.39308,54.7288588 L109.39308,42.6023604 L104.685053,39.316142 Z M27.4373777,38.8696236 C27.4373777,35.8967514 27.5783835,32.7045369 28.4557529,30.0175931 C29.5015459,23.3198178 32.6154239,15.1414817 40.9935182,9.54825181 C57.4716122,-1.43453294 93.3732545,0.0695288789 93.3732545,0.0695288789 L93.3732545,11.1188997 C93.3732545,11.1188997 76.5857311,10.1396928 68.2585556,18.7332127 C75.7122786,23.0495567 81.9831197,28.3255236 81.9831197,38.5249428 C81.9831197,53.679149 69.6960313,65.9662374 54.5339914,65.9662374 C39.3797852,65.9701542 27.4373777,54.0238298 27.4373777,38.8696236 Z" id="Shape"></path>
            </g>
        </g>
    </g>
</svg>