<?xml version="1.0" encoding="UTF-8"?>
<svg width="109px" height="109px" viewBox="0 0 109 109" version="1.1" xmlns="http://www.w3.org/2000/svg" xmlns:xlink="http://www.w3.org/1999/xlink">
    <!-- Generator: Sketch 49.3 (51167) - http://www.bohemiancoding.com/sketch -->
    <title>logo_barnaul</title>
    <desc>Created with Sketch.</desc>
    <defs></defs>
    <g id="Page-1" stroke="none" stroke-width="1" fill="none" fill-rule="evenodd">
        <g id="Главная-страница-2-2" transform="translate(-501.000000, -208.000000)" fill="#ECF0F1" fill-rule="nonzero">
            <g id="logo_barnaul" transform="translate(501.000000, 208.000000)">
                <path d="M73.94646,62.5487822 L73.94646,59.0520768 C73.94646,39.159448 60.4117346,39.1126693 54.4832042,39.1126693 L54.4753829,27.1958035 L35.4853144,27.1958035 L35.4892251,38.9606386 C25.1377607,38.9606386 15.7835095,39.159448 15.7835095,59.0520768 L15.7835095,62.369464 C9.59296622,63.6052005 0.000166002683,69.0354242 0.000166002683,85.3806707 C-0.00374463744,89.3022824 0.0627362446,109 0.0627362446,109 L38.8836607,109 L38.8836607,56.6351789 L44.835655,53.376265 L51.0770366,56.5182322 L51.0770366,109 L89.6242163,109 C89.6242163,109 89.5577354,89.3022824 89.5577354,85.3806707 C89.561646,68.8405131 80.3442673,63.6636738 73.94646,62.5487822 Z M27.2495064,93.6799861 L11.4348777,93.6799861 C11.4348777,93.6799861 11.4348777,90.3898864 11.4348777,84.4762831 C11.4348777,80.9717811 14.9622751,77.5725312 19.4243155,77.5725312 C23.8863559,77.5725312 27.2495064,81.0536438 27.2495064,84.4762831 C27.2495064,90.7173371 27.2495064,93.6799861 27.2495064,93.6799861 Z M78.0878279,93.6799861 L62.2731993,93.6799861 C62.2731993,93.6799861 62.2731993,90.3898864 62.2731993,84.4762831 C62.2731993,80.9717811 65.8005967,77.5725312 70.262637,77.5725312 C74.7246774,77.5725312 78.0878279,81.0536438 78.0878279,84.4762831 C78.0878279,90.7173371 78.0878279,93.6799861 78.0878279,93.6799861 Z M108.962332,0.153834941 C108.962332,0.153834941 99.7684167,-1.06630866 94.7041378,3.36597018 C92.1231153,5.62693915 86.6403979,11.7666394 80.2034842,11.7666394 C74.1771878,11.7666394 72.1592975,7.78265612 68.8782704,4.45747244 C66.6726694,2.23158746 56.8960691,-3.05440207 43.9518503,2.40700747 C34.5780459,6.36370318 35.3132463,18.9159792 35.3132463,18.9159792 L54.1312465,18.9159792 C54.1312465,18.9159792 53.0440886,11.2013971 61.2955392,11.2013971 C70.2665477,11.2013971 69.6799517,26.9346226 81.7286339,26.9346226 C85.6275421,26.9346226 93.5583202,24.100615 93.5583202,15.3452075 C110.522677,16.2106129 108.962332,0.153834941 108.962332,0.153834941 Z" id="Shape"></path>
            </g>
        </g>
    </g>
</svg>