<?xml version="1.0" encoding="UTF-8"?>
<svg width="132px" height="31px" viewBox="0 0 132 31" version="1.1" xmlns="http://www.w3.org/2000/svg" xmlns:xlink="http://www.w3.org/1999/xlink">
    <!-- Generator: Sketch 49.3 (51167) - http://www.bohemiancoding.com/sketch -->
    <title>Page 1</title>
    <desc>Created with Sketch.</desc>
    <defs>
        <path d="M5.894,1.608 L5.894,1.61 C-3.881,7.567 1.413,22.892 5.404,27.624 C5.461,27.693 5.891,28.167 6.028,28.3 C8.534,30.762 12.122,31.172 14.04,29.218 C15.912,27.309 15.495,23.854 13.14,21.402 C10.666,18.734 7.858,17.372 5.567,13.989 C4.283,12.187 3.524,9.998 3.427,7.895 C3.419,7.745 3.415,7.594 3.415,7.442 L3.415,7.428 C3.415,5.68 3.929,4.088 4.775,2.88 C5.247,2.075 6.295,1.26 7.649,0.725 C7.042,0.954 6.453,1.251 5.894,1.608" id="path-1"></path>
        <linearGradient x1="32.8643703%" y1="40.3283446%" x2="104.329506%" y2="80.5539847%" id="linearGradient-3">
            <stop stop-color="#31A3D8" offset="0%"></stop>
            <stop stop-color="#3D4D7A" offset="100%"></stop>
        </linearGradient>
        <path d="M0.476,0.159 C0.324,0.163 0.173,0.171 0.021,0.186 C0.831,0.142 1.532,0.267 2.007,0.549 C2.091,0.596 2.175,0.648 2.257,0.703 C2.647,0.973 2.958,1.324 3.193,1.736 C3.571,2.354 3.758,3.123 3.758,3.964 L3.758,4.027 C3.746,5.732 2.973,7.736 1.488,9.409 C1.45,9.451 1.411,9.495 1.371,9.539 L1.371,9.54 C1.245,9.684 1.127,9.837 1.015,9.998 C-0.456,12.111 -0.137,14.876 1.724,16.17 C3.588,17.466 6.291,16.801 7.76,14.688 C7.833,14.581 7.904,14.473 7.968,14.364 C12.108,7.871 7.452,0.151 0.837,0.151 C0.718,0.151 0.596,0.154 0.476,0.159" id="path-4"></path>
        <linearGradient x1="50.0118846%" y1="76.0407169%" x2="50.0118846%" y2="7.40659721%" id="linearGradient-6">
            <stop stop-color="#31A3D8" offset="0%"></stop>
            <stop stop-color="#3D4D7A" offset="100%"></stop>
        </linearGradient>
        <path d="M4.838,0.654 C3.393,1.185 2.268,2.037 1.775,2.88 C0.929,4.088 0.415,5.68 0.415,7.428 C0.415,7.579 0.419,7.729 0.427,7.88 C0.524,9.986 1.283,12.179 2.567,13.984 C3.609,15.524 4.755,16.643 5.931,17.659 C4.581,16.482 3.751,14.362 3.89,11.996 C4.098,8.485 6.365,5.762 8.956,5.916 C9.435,5.945 9.915,6.092 10.339,6.3 C10.604,5.544 10.744,4.796 10.757,4.095 L10.757,3.866 C10.743,3.063 10.556,2.33 10.193,1.736 L10.192,1.734 C9.956,1.324 9.646,0.973 9.257,0.703 C9.175,0.648 9.091,0.596 9.007,0.549 C8.592,0.304 8.007,0.176 7.327,0.176 C6.579,0.176 5.715,0.332 4.838,0.654" id="path-7"></path>
        <linearGradient x1="0.00450879907%" y1="50.0058234%" x2="100.004509%" y2="50.0058234%" id="linearGradient-9">
            <stop stop-color="#F6B966" offset="0%"></stop>
            <stop stop-color="#E35743" offset="100%"></stop>
        </linearGradient>
    </defs>
    <g id="Page-1" stroke="none" stroke-width="1" fill="none" fill-rule="evenodd">
        <g id="Главная-страница-2-2" transform="translate(-19.000000, -16.000000)">
            <g id="Page-1" transform="translate(19.000000, 16.000000)">
                <g id="Group-3" transform="translate(0.000000, 0.103600)">
                    <mask id="mask-2" fill="white">
                        <use xlink:href="#path-1"></use>
                    </mask>
                    <g id="Clip-2"></g>
                    <path d="M5.894,1.608 L5.894,1.61 C-3.881,7.567 1.413,22.892 5.404,27.624 C5.461,27.693 5.891,28.167 6.028,28.3 C8.534,30.762 12.122,31.172 14.04,29.218 C15.912,27.309 15.495,23.854 13.14,21.402 C10.666,18.734 7.858,17.372 5.567,13.989 C4.283,12.187 3.524,9.998 3.427,7.895 C3.419,7.745 3.415,7.594 3.415,7.442 L3.415,7.428 C3.415,5.68 3.929,4.088 4.775,2.88 C5.247,2.075 6.295,1.26 7.649,0.725 C7.042,0.954 6.453,1.251 5.894,1.608" id="Fill-1" fill="url(#linearGradient-3)" mask="url(#mask-2)"></path>
                </g>
                <g id="Group-6" transform="translate(10.000000, 0.103600)">
                    <mask id="mask-5" fill="white">
                        <use xlink:href="#path-4"></use>
                    </mask>
                    <g id="Clip-5"></g>
                    <path d="M0.476,0.159 C0.324,0.163 0.173,0.171 0.021,0.186 C0.831,0.142 1.532,0.267 2.007,0.549 C2.091,0.596 2.175,0.648 2.257,0.703 C2.647,0.973 2.958,1.324 3.193,1.736 C3.571,2.354 3.758,3.123 3.758,3.964 L3.758,4.027 C3.746,5.732 2.973,7.736 1.488,9.409 C1.45,9.451 1.411,9.495 1.371,9.539 L1.371,9.54 C1.245,9.684 1.127,9.837 1.015,9.998 C-0.456,12.111 -0.137,14.876 1.724,16.17 C3.588,17.466 6.291,16.801 7.76,14.688 C7.833,14.581 7.904,14.473 7.968,14.364 C12.108,7.871 7.452,0.151 0.837,0.151 C0.718,0.151 0.596,0.154 0.476,0.159" id="Fill-4" fill="url(#linearGradient-6)" mask="url(#mask-5)"></path>
                </g>
                <g id="Group-9" transform="translate(3.000000, 0.103600)">
                    <mask id="mask-8" fill="white">
                        <use xlink:href="#path-7"></use>
                    </mask>
                    <g id="Clip-8"></g>
                    <path d="M4.838,0.654 C3.393,1.185 2.268,2.037 1.775,2.88 C0.929,4.088 0.415,5.68 0.415,7.428 C0.415,7.579 0.419,7.729 0.427,7.88 C0.524,9.986 1.283,12.179 2.567,13.984 C3.609,15.524 4.755,16.643 5.931,17.659 C4.581,16.482 3.751,14.362 3.89,11.996 C4.098,8.485 6.365,5.762 8.956,5.916 C9.435,5.945 9.915,6.092 10.339,6.3 C10.604,5.544 10.744,4.796 10.757,4.095 L10.757,3.866 C10.743,3.063 10.556,2.33 10.193,1.736 L10.192,1.734 C9.956,1.324 9.646,0.973 9.257,0.703 C9.175,0.648 9.091,0.596 9.007,0.549 C8.592,0.304 8.007,0.176 7.327,0.176 C6.579,0.176 5.715,0.332 4.838,0.654" id="Fill-7" fill="url(#linearGradient-9)" mask="url(#mask-8)"></path>
                </g>
                <g id="Group-30" transform="translate(26.000000, 10.103600)" fill="#231E1F">
                    <path d="M14.8584,12.4078 C15.9854,12.4078 17.2074,11.4878 17.2074,9.2338 C17.2074,6.9808 15.9854,6.0598 14.8584,6.0598 C13.7324,6.0598 12.5094,6.9808 12.5094,9.2338 C12.5094,11.4878 13.7324,12.4078 14.8584,12.4078 M14.8584,4.2178 C17.7504,4.2178 19.8734,5.9848 19.8734,9.2338 C19.8734,12.4838 17.7504,14.2498 14.8584,14.2498 C11.9654,14.2498 9.8444,12.4838 9.8444,9.2338 C9.8444,5.9848 11.9654,4.2178 14.8584,4.2178" id="Fill-10"></path>
                    <path d="M38.8008,4.3697 L30.5718,4.3697 C30.4588,4.3697 30.3658,4.4627 30.3658,4.5727 L30.3658,6.0427 C30.3658,6.1547 30.4588,6.2477 30.5718,6.2477 L33.4048,6.2477 L33.4088,13.8947 C33.4088,14.0077 33.5018,14.0977 33.6138,14.0977 L35.7598,14.0977 C35.8708,14.0977 35.9628,14.0077 35.9628,13.8947 L35.9628,6.2477 L38.8008,6.2477 C38.9128,6.2477 39.0068,6.1547 39.0068,6.0427 L39.0068,4.5727 C39.0068,4.4627 38.9128,4.3697 38.8008,4.3697" id="Fill-12"></path>
                    <path d="M28.9854,14.0957 C29.0984,14.0957 29.1904,14.0047 29.1904,13.8937 L29.1804,12.4167 C29.1784,12.3067 29.0874,12.2127 28.9754,12.2127 C28.9174,12.2127 27.3574,12.2117 27.0274,12.2117 C25.2434,12.2117 24.0354,11.0367 24.0354,9.2707 C24.0354,7.3177 25.3534,6.2477 27.0614,6.2477 L28.8204,6.2477 C28.9274,6.2477 29.0154,6.1617 29.0214,6.0557 L29.0244,4.5737 C29.0244,4.4627 28.9334,4.3697 28.8194,4.3697 L26.6304,4.3697 C23.1734,4.3697 21.3704,6.5487 21.3704,9.1397 C21.3704,11.7127 23.1124,14.0957 26.5864,14.0957" id="Fill-14"></path>
                    <path d="M81.6284,13.8887 L77.6824,8.9717 L80.7554,5.0457 L80.7514,5.0457 C80.7514,5.0457 80.8264,4.9507 80.9154,4.8427 L81.1344,4.5597 C81.1994,4.4617 81.1534,4.3697 81.0164,4.3697 L78.6354,4.3697 C78.5184,4.3697 78.4214,4.4037 78.3474,4.4907 L75.3144,8.7827 L75.2214,8.7827 L75.2214,4.5737 C75.2214,4.4637 75.1334,4.3767 75.0294,4.3697 L72.8704,4.3697 C72.7604,4.3697 72.6694,4.4627 72.6694,4.5737 L72.6654,13.8947 C72.6654,14.0067 72.7594,14.0977 72.8704,14.0977 L75.0164,14.0977 C75.1284,14.0977 75.2194,14.0067 75.2194,13.8947 L75.2214,9.4397 L75.3144,9.4397 L78.4704,13.9417 C78.5514,14.0537 78.6534,14.0977 78.7884,14.0977 L81.5174,14.0977 C81.6634,14.0977 81.7074,13.9957 81.6284,13.8887" id="Fill-16"></path>
                    <path d="M4.0967,7.0928 L2.8767,7.0928 L2.8767,3.0168 L4.0967,3.0168 C5.6377,3.0168 6.3327,3.8998 6.3327,4.9898 C6.3327,5.9848 5.7127,7.0928 4.0967,7.0928 M4.0967,0.9518 L1.1407,0.9518 C0.6537,1.0248 0.2697,1.4198 0.2097,1.9098 L0.2097,13.8948 C0.2097,14.0078 0.3017,14.0978 0.4147,14.0978 L2.6717,14.0978 C2.7847,14.0978 2.8767,14.0078 2.8767,13.8948 L2.8767,9.1588 L4.5847,9.1588 C7.9477,9.1588 9.1487,6.7928 9.1487,5.0638 C9.1487,4.2388 8.8667,0.9518 4.0967,0.9518" id="Fill-18"></path>
                    <path d="M59.3257,4.3697 L52.7927,4.3697 C52.1887,4.3697 51.6897,4.8687 51.6897,5.4757 L51.6897,9.2047 C51.6897,11.1107 50.9567,12.1947 49.6867,12.1947 L49.6217,12.1947 C49.5147,12.1967 49.4257,12.2797 49.4197,12.3857 L49.4197,13.8947 C49.4197,14.0007 49.5047,14.0877 49.6097,14.0967 C49.7357,14.0967 49.9267,14.0947 50.1657,14.0947 C51.5027,14.0947 53.9627,13.4287 53.9627,9.2047 L53.9627,6.2477 L56.9677,6.2477 L56.9677,13.8947 C56.9677,14.0077 57.0587,14.0977 57.1697,14.0977 L59.3167,14.0977 C59.4277,14.0977 59.5217,14.0077 59.5217,13.8947 L59.5217,4.5727 C59.5217,4.4647 59.4337,4.3757 59.3257,4.3697" id="Fill-20"></path>
                    <path d="M105.6807,6.1656 L105.6807,5.4806 C105.6807,4.8766 105.1807,4.3776 104.5767,4.3776 L102.5627,4.3776 C102.4657,4.3896 102.3757,4.4296 102.2917,4.5556 L99.4647,8.9626 L96.6607,4.5566 L96.6607,4.5556 C96.5427,4.3696 96.3977,4.3696 96.2567,4.3696 L94.3707,4.3696 C93.7687,4.3696 93.2697,4.8676 93.2697,5.4756 L93.2697,13.9046 C93.2747,14.0116 93.3627,14.0966 93.4727,14.0966 L95.6167,14.0966 C95.7267,14.0966 95.8197,14.0066 95.8197,13.8946 L95.8237,8.5576 L95.7647,6.5756 L95.8597,6.5756 L99.1597,11.8526 C99.3307,12.1166 99.6397,12.1116 99.7987,11.8506 L103.0917,6.5756 L103.1827,6.5756 L103.1287,8.5576 L103.1287,13.8946 C103.1287,14.0066 103.2197,14.0966 103.3337,14.0966 L105.4797,14.0966 C105.5897,14.0966 105.6807,14.0066 105.6807,13.8946" id="Fill-22"></path>
                    <path d="M86.6348,12.4078 C87.7608,12.4078 88.9818,11.4878 88.9818,9.2338 C88.9818,6.9808 87.7608,6.0598 86.6348,6.0598 C85.5088,6.0598 84.2868,6.9808 84.2868,9.2338 C84.2868,11.4878 85.5088,12.4078 86.6348,12.4078 M86.6348,4.2178 C89.5258,4.2178 91.6488,5.9848 91.6488,9.2338 C91.6488,12.4838 89.5258,14.2498 86.6348,14.2498 C83.7418,14.2498 81.6208,12.4838 81.6208,9.2338 C81.6208,5.9848 83.7418,4.2178 86.6348,4.2178" id="Fill-24"></path>
                    <path d="M44.4297,5.9849 C45.3667,5.9849 46.4747,6.6229 46.4367,8.2589 L42.4367,8.2589 C42.4567,6.9809 43.3007,5.9849 44.4297,5.9849 M47.7817,12.1969 L45.6777,12.1969 C43.9427,12.1969 42.5117,11.2449 42.4367,10.0039 L47.8427,10.0039 C48.4477,10.0039 48.9477,9.5049 48.9477,8.8999 L48.9477,8.6779 C48.8367,7.1539 48.2087,4.2179 44.5777,4.2179 C41.9697,4.2179 39.7707,6.0969 39.7707,9.2339 C39.7707,12.6699 42.6677,14.0969 45.5797,14.0969 L47.7817,14.0969 C47.8897,14.0969 47.9817,14.0099 47.9887,13.9029 L47.9887,12.3839 C47.9777,12.2799 47.8887,12.1969 47.7817,12.1969" id="Fill-26"></path>
                    <path d="M66.0205,5.9849 C66.9585,5.9849 68.0675,6.6229 68.0305,8.2589 L64.0305,8.2589 C64.0475,6.9809 64.8915,5.9849 66.0205,5.9849 M69.5665,11.9769 C69.5665,11.9769 68.2525,12.1009 67.2695,12.1009 C65.5335,12.1009 64.1035,11.2449 64.0305,10.0039 L69.4475,10.0039 C70.0505,10.0039 70.5505,9.5069 70.5515,8.8999 C70.4855,7.4649 69.9875,4.2179 66.1695,4.2179 C63.5595,4.2179 61.3615,6.0969 61.3615,9.2339 C61.3615,12.6699 64.2515,14.0969 67.1715,14.0969 C68.3075,14.0969 69.5665,13.9749 69.5665,13.9749 C69.6755,13.9749 69.7655,13.8869 69.7685,13.7799 L69.7685,12.1629 C69.7605,12.0589 69.6735,11.9769 69.5665,11.9769" id="Fill-28"></path>
                </g>
            </g>
        </g>
    </g>
</svg>