<?xml version="1.0" encoding="UTF-8"?>
<svg width="47px" height="48px" viewBox="0 0 47 48" version="1.1" xmlns="http://www.w3.org/2000/svg" xmlns:xlink="http://www.w3.org/1999/xlink">
    <!-- Generator: Sketch 49.3 (51167) - http://www.bohemiancoding.com/sketch -->
    <title>Group 4 Copy 2</title>
    <desc>Created with Sketch.</desc>
    <defs>
        <rect id="path-1" x="0.999161701" y="0.999183635" width="46.9399986" height="46.9399986" rx="1"></rect>
    </defs>
    <g id="Page-1" stroke="none" stroke-width="1" fill="none" fill-rule="evenodd">
        <g id="Страница-входа" transform="translate(-616.000000, -260.000000)">
            <g id="Group-2-Copy-111" transform="translate(615.000000, 259.000000)">
                <g id="Group-4-Copy-2" transform="translate(0.040816, 0.040816)">
                    <g id="Rectangle-2">
                        <use fill="#FFFFFF" fill-rule="evenodd" xlink:href="#path-1"></use>
                        <rect stroke="#FFFFFF" stroke-width="1" x="1.4991617" y="1.49918364" width="45.9399986" height="45.9399986" rx="1"></rect>
                    </g>
                    <g id="forum-user" transform="translate(8.258503, 7.632653)" fill="#ECF0F1" fill-rule="nonzero">
                        <g id="Group">
                            <path d="M16.8449475,21.5843664 C22.8579439,21.5840353 25.0213823,15.5801162 25.5878707,10.6483042 C26.285557,4.57261108 23.4047127,0 16.8449475,0 C10.2862447,0 7.40380688,4.57228002 8.10202436,10.648238 C8.66904388,15.5799838 10.8318184,21.5848299 16.8449475,21.5843664 Z" id="Shape"></path>
                            <path d="M33.9028562,36.4532124 C33.8343588,34.5182807 33.6000146,32.5745793 33.2510237,30.669772 C32.8282078,28.3623003 32.2900534,24.9794499 30.2078703,23.4757005 C29.0036996,22.6062397 27.4443802,22.3209939 26.0658524,21.7966933 C25.3949237,21.541639 24.7938761,21.2883252 24.2297757,21 C22.3258243,23.0200838 19.8431735,24.0768521 16.9520291,24.076986 C14.0617149,24.076986 11.5793409,23.0202177 9.67559709,21 C9.11149665,21.2883921 8.51044913,21.5417729 7.83952041,21.7966933 C6.46099262,22.3209939 4.90167318,22.6061728 3.69764083,23.4757005 C1.6153194,24.9794499 1.07723415,28.3623003 0.654487473,30.669772 C0.305427411,32.5745793 0.0710140342,34.5182807 0.00258580803,36.4532124 C-0.0504132023,37.9518741 0.714405414,38.1619425 2.01025197,38.6144129 C3.63294883,39.1806201 5.30822955,39.6009576 6.99471895,39.9455153 C10.251944,40.6109995 13.6094244,41.122514 16.9525134,41.1454086 C20.2956024,41.122447 23.6530828,40.6109995 26.9103079,39.9455153 C28.5967973,39.6010915 30.2722164,39.180754 31.8947749,38.6144129 C33.1911058,38.1620764 33.9558552,37.952008 33.9028562,36.4532124 Z" id="Shape"></path>
                        </g>
                    </g>
                </g>
            </g>
        </g>
    </g>
</svg>